# xmcd CD database file
#
# Track frame offsets:
#	150
#	17551
#	30565
#	45517
#	63382
#	83151
#	98303
#	115630
#	133760
#	150767
#	169744
#	185446
#	198762
#	213200
#	227738
#	244189
#	259765
#
# Disc length: 3702 seconds
#
# Revision: 2
# Processed by: cddbd v1.5.2PL0 Copyright (c) Steve Scherf et al.
# Submitted via: CDex 1.51
#
DISCID=c70e7411
DTITLE=Various Artist - RC107
DYEAR=2008
DGENRE=Country
TTITLE0=Rascal Flatts - Every Day
TTITLE1=Taylor Swift - Picture To Burn
TTITLE2=Joe Nichols - It Ain't No Crime
TTITLE3=Trisha Yearwood - This Is Me You're Talking To
TTITLE4=Eagles - Busy Being Fabulous
TTITLE5=George Strait - I Saw God Today
TTITLE6=Jewel - Stronger Woman
TTITLE7=Brad Paisley - I'm Still A Guy
TTITLE8=Clay Walker - She Likes It In The Morning
TTITLE9=Cross Canadian Ragweed - Cry Lonely
TTITLE10=Jypsi - I Don't Love you Like That
TTITLE11=Sarah Johns - He Hates Me
TTITLE12=Road Hammers - I Don't Know When To Quit
TTITLE13=Rockie Lynne - I Can't Believe It's Me
TTITLE14=LeAnn Rimes - Good Friend And A Glass Of Wine
TTITLE15=Carter's Chord - Young Love
TTITLE16=Sara Evans - Some Things Never Change
EXTD=YEAR: 2008
EXTT0=
EXTT1=
EXTT2=
EXTT3=
EXTT4=
EXTT5=
EXTT6=
EXTT7=
EXTT8=
EXTT9=
EXTT10=
EXTT11=
EXTT12=
EXTT13=
EXTT14=
EXTT15=
EXTT16=
PLAYORDER=
